<svg width="36" height="35" viewBox="0 0 36 35" fill="none" xmlns="http://www.w3.org/2000/svg">
<path d="M13.8542 1.45833H21.2108C28.0569 1.45833 33.6067 7.00814 33.6067 13.8542V21.1458C33.6067 27.9919 28.0569 33.5417 21.2108 33.5417H13.8542C7.00814 33.5417 1.45833 27.9919 1.45833 21.1458V13.8542C1.45833 7.00814 7.00814 1.45833 13.8542 1.45833Z" fill="#F03E3D"/>
<path d="M13.8542 1.45833H21.2108C28.0569 1.45833 33.6067 7.00814 33.6067 13.8542V21.1458C33.6067 27.9919 28.0569 33.5417 21.2108 33.5417H13.8542C7.00814 33.5417 1.45833 27.9919 1.45833 21.1458V13.8542C1.45833 7.00814 7.00814 1.45833 13.8542 1.45833Z" stroke="white" stroke-width="2.91667"/>
<path d="M13.8542 1.45833H21.2108C28.0569 1.45833 33.6067 7.00814 33.6067 13.8542V21.1458C33.6067 27.9919 28.0569 33.5417 21.2108 33.5417H13.8542C7.00814 33.5417 1.45833 27.9919 1.45833 21.1458V13.8542C1.45833 7.00814 7.00814 1.45833 13.8542 1.45833Z" stroke="#F03E3D" stroke-width="2.91667"/>
<path d="M25.8136 12.2393C25.5007 11.9202 24.9932 11.9202 24.6802 12.2393L15.0779 22.0277L11.3869 18.2653C11.0739 17.9462 10.5665 17.9462 10.2534 18.2653C9.94042 18.5843 9.94042 19.1016 10.2534 19.4207L14.5111 23.7608C14.824 24.0798 15.3318 24.0796 15.6446 23.7608L25.8136 13.3947C26.1267 13.0757 26.1266 12.5584 25.8136 12.2393Z" fill="white"/>
</svg>
