<svg width="32" height="32" viewBox="0 0 32 32" fill="none" xmlns="http://www.w3.org/2000/svg">
<g clip-path="url(#clip0_34_124)" filter="url(#filter0_dd_34_124)">
<path d="M22 10H28L25 6L22 10ZM22 14H28L25 18L22 14Z" fill="#D6B1FF"/>
<path d="M5 0H11V24H5C4.73478 24 4.48043 23.8946 4.29289 23.7071C4.10536 23.5196 4 23.2652 4 23V1C4 0.734784 4.10536 0.480429 4.29289 0.292892C4.48043 0.105356 4.73478 0 5 0Z" fill="#02897A"/>
<path d="M13 0H19C19.2652 0 19.5196 0.105356 19.7071 0.292892C19.8946 0.480429 20 0.734784 20 1V23C20 23.2652 19.8946 23.5196 19.7071 23.7071C19.5196 23.8946 19.2652 24 19 24H13V0Z" fill="#02897A"/>
</g>
<defs>
<filter id="filter0_dd_34_124" x="0" y="0" width="32" height="32" filterUnits="userSpaceOnUse" color-interpolation-filters="sRGB">
<feFlood flood-opacity="0" result="BackgroundImageFix"/>
<feColorMatrix in="SourceAlpha" type="matrix" values="0 0 0 0 0 0 0 0 0 0 0 0 0 0 0 0 0 0 127 0" result="hardAlpha"/>
<feOffset dy="4"/>
<feGaussianBlur stdDeviation="2"/>
<feComposite in2="hardAlpha" operator="out"/>
<feColorMatrix type="matrix" values="0 0 0 0 0 0 0 0 0 0 0 0 0 0 0 0 0 0 0.25 0"/>
<feBlend mode="normal" in2="BackgroundImageFix" result="effect1_dropShadow_34_124"/>
<feColorMatrix in="SourceAlpha" type="matrix" values="0 0 0 0 0 0 0 0 0 0 0 0 0 0 0 0 0 0 127 0" result="hardAlpha"/>
<feOffset dy="4"/>
<feGaussianBlur stdDeviation="2"/>
<feComposite in2="hardAlpha" operator="out"/>
<feColorMatrix type="matrix" values="0 0 0 0 0 0 0 0 0 0 0 0 0 0 0 0 0 0 0.25 0"/>
<feBlend mode="normal" in2="effect1_dropShadow_34_124" result="effect2_dropShadow_34_124"/>
<feBlend mode="normal" in="SourceGraphic" in2="effect2_dropShadow_34_124" result="shape"/>
</filter>
<clipPath id="clip0_34_124">
<rect width="24" height="24" fill="white" transform="translate(4)"/>
</clipPath>
</defs>
</svg>
